<svg width="143" height="36" viewBox="0 0 143 36" fill="none" xmlns="http://www.w3.org/2000/svg">
    <circle cx="18" cy="18" r="18" fill="#094B72"/>
    <path d="M18.66 21.36H23.14V24H15.24V9.96H18.66V21.36Z" fill="white"/>
    <path d="M52.66 20.36H57.14V23H49.24V8.96H52.66V20.36ZM59.5913 17.4C59.5913 16.2533 59.8046 15.2467 60.2313 14.38C60.6713 13.5133 61.2646 12.8467 62.0113 12.38C62.7579 11.9133 63.5913 11.68 64.5113 11.68C65.2979 11.68 65.9846 11.84 66.5713 12.16C67.1713 12.48 67.6313 12.9 67.9513 13.42V11.84H71.3713V23H67.9513V21.42C67.6179 21.94 67.1513 22.36 66.5513 22.68C65.9646 23 65.2779 23.16 64.4913 23.16C63.5846 23.16 62.7579 22.9267 62.0113 22.46C61.2646 21.98 60.6713 21.3067 60.2313 20.44C59.8046 19.56 59.5913 18.5467 59.5913 17.4ZM67.9513 17.42C67.9513 16.5667 67.7113 15.8933 67.2313 15.4C66.7646 14.9067 66.1913 14.66 65.5113 14.66C64.8313 14.66 64.2513 14.9067 63.7713 15.4C63.3046 15.88 63.0713 16.5467 63.0713 17.4C63.0713 18.2533 63.3046 18.9333 63.7713 19.44C64.2513 19.9333 64.8313 20.18 65.5113 20.18C66.1913 20.18 66.7646 19.9333 67.2313 19.44C67.7113 18.9467 67.9513 18.2733 67.9513 17.42ZM91.3655 11.84L88.3455 23H84.5655L82.8055 15.76L80.9855 23H77.2255L74.1855 11.84H77.6055L79.1855 19.82L81.0655 11.84H84.6855L86.5855 19.78L88.1455 11.84H91.3655ZM97.5897 8.2V23H94.1697V8.2H97.5897ZM103.288 10.68C102.688 10.68 102.195 10.5067 101.808 10.16C101.435 9.8 101.248 9.36 101.248 8.84C101.248 8.30667 101.435 7.86667 101.808 7.52C102.195 7.16 102.688 6.98 103.288 6.98C103.875 6.98 104.355 7.16 104.728 7.52C105.115 7.86667 105.308 8.30667 105.308 8.84C105.308 9.36 105.115 9.8 104.728 10.16C104.355 10.5067 103.875 10.68 103.288 10.68ZM104.988 11.84V23H101.568V11.84H104.988ZM119.487 17.24C119.487 17.56 119.467 17.8933 119.427 18.24H111.687C111.74 18.9333 111.96 19.4667 112.347 19.84C112.747 20.2 113.233 20.38 113.807 20.38C114.66 20.38 115.253 20.02 115.587 19.3H119.227C119.04 20.0333 118.7 20.6933 118.207 21.28C117.727 21.8667 117.12 22.3267 116.387 22.66C115.653 22.9933 114.833 23.16 113.927 23.16C112.833 23.16 111.86 22.9267 111.007 22.46C110.153 21.9933 109.487 21.3267 109.007 20.46C108.527 19.5933 108.287 18.58 108.287 17.42C108.287 16.26 108.52 15.2467 108.987 14.38C109.467 13.5133 110.133 12.8467 110.987 12.38C111.84 11.9133 112.82 11.68 113.927 11.68C115.007 11.68 115.967 11.9067 116.807 12.36C117.647 12.8133 118.3 13.46 118.767 14.3C119.247 15.14 119.487 16.12 119.487 17.24ZM115.987 16.34C115.987 15.7533 115.787 15.2867 115.387 14.94C114.987 14.5933 114.487 14.42 113.887 14.42C113.313 14.42 112.827 14.5867 112.427 14.92C112.04 15.2533 111.8 15.7267 111.707 16.34H115.987ZM129.011 20.1V23H127.271C126.031 23 125.064 22.7 124.371 22.1C123.677 21.4867 123.331 20.4933 123.331 19.12V14.68H121.971V11.84H123.331V9.12H126.751V11.84H128.991V14.68H126.751V19.16C126.751 19.4933 126.831 19.7333 126.991 19.88C127.151 20.0267 127.417 20.1 127.791 20.1H129.011Z" fill="#2D2F30"/>
</svg>